<svg width="118" height="21" viewBox="0 0 118 21" fill="none" xmlns="http://www.w3.org/2000/svg">
<path d="M-4.81771e-05 0.745576H3.42051L8.00136 11.9264H8.18218L12.763 0.745576H16.1836V16.1758H13.5014V5.57505H13.3582L9.09383 16.1306H7.08971L2.82531 5.55245H2.68216V16.1758H-4.81771e-05V0.745576ZM22.437 16.4093C21.7037 16.4093 21.0432 16.2787 20.4555 16.0176C19.8729 15.7514 19.4108 15.3596 19.0692 14.8422C18.7327 14.3249 18.5644 13.687 18.5644 12.9285C18.5644 12.2755 18.685 11.7356 18.9261 11.3086C19.1672 10.8817 19.4962 10.5401 19.9131 10.284C20.33 10.0278 20.7996 9.83443 21.322 9.70383C21.8494 9.56822 22.3943 9.47027 22.9569 9.41C23.635 9.33968 24.185 9.27689 24.6069 9.22164C25.0288 9.16137 25.3352 9.07096 25.5261 8.95041C25.722 8.82484 25.8199 8.63146 25.8199 8.37027V8.32506C25.8199 7.75748 25.6517 7.31798 25.3151 7.00656C24.9786 6.69515 24.4939 6.53944 23.861 6.53944C23.193 6.53944 22.6631 6.6851 22.2713 6.97643C21.8845 7.26775 21.6233 7.61182 21.4877 8.00862L18.9411 7.64698C19.142 6.94378 19.4736 6.3561 19.9357 5.88395C20.3978 5.40678 20.9628 5.05016 21.6309 4.81409C22.2989 4.57299 23.0373 4.45244 23.8459 4.45244C24.4035 4.45244 24.9585 4.51774 25.511 4.64833C26.0635 4.77893 26.5683 4.99491 27.0254 5.29628C27.4825 5.59263 27.8492 5.99697 28.1254 6.5093C28.4067 7.02163 28.5473 7.66204 28.5473 8.43054V16.1758H25.9254V14.586H25.835C25.6692 14.9075 25.4357 15.2089 25.1343 15.4902C24.838 15.7664 24.4638 15.9899 24.0117 16.1607C23.5647 16.3265 23.0398 16.4093 22.437 16.4093ZM23.1453 14.4052C23.6928 14.4052 24.1674 14.2972 24.5692 14.0813C24.9711 13.8602 25.28 13.5689 25.496 13.2073C25.717 12.8456 25.8275 12.4513 25.8275 12.0244V10.6607C25.7421 10.731 25.5964 10.7963 25.3905 10.8566C25.1896 10.9169 24.9635 10.9696 24.7124 11.0148C24.4612 11.06 24.2126 11.1002 23.9665 11.1353C23.7204 11.1705 23.5069 11.2006 23.3261 11.2258C22.9192 11.281 22.5551 11.3714 22.2336 11.497C21.9121 11.6226 21.6585 11.7984 21.4726 12.0244C21.2868 12.2454 21.1939 12.5317 21.1939 12.8833C21.1939 13.3856 21.3772 13.7648 21.7439 14.021C22.1106 14.2771 22.5777 14.4052 23.1453 14.4052ZM36.3227 20.7566C35.3433 20.7566 34.5019 20.6235 33.7987 20.3573C33.0955 20.0961 32.5305 19.7445 32.1035 19.3025C31.6766 18.8605 31.3802 18.3708 31.2145 17.8333L33.6706 17.2381C33.7812 17.4641 33.9419 17.6877 34.1528 17.9087C34.3638 18.1347 34.6476 18.3205 35.0042 18.4662C35.3659 18.6169 35.8204 18.6922 36.3679 18.6922C37.1414 18.6922 37.7819 18.5039 38.2892 18.1272C38.7965 17.7555 39.0501 17.1427 39.0501 16.2888V14.0963H38.9145C38.7739 14.3776 38.5679 14.6664 38.2967 14.9628C38.0305 15.2591 37.6764 15.5077 37.2344 15.7087C36.7974 15.9096 36.2474 16.01 35.5844 16.01C34.6953 16.01 33.8891 15.8016 33.1659 15.3847C32.4476 14.9628 31.875 14.3349 31.448 13.5011C31.0261 12.6623 30.8152 11.6125 30.8152 10.3518C30.8152 9.081 31.0261 8.00862 31.448 7.13465C31.875 6.25565 32.4501 5.59012 33.1734 5.13806C33.8967 4.68098 34.7028 4.45244 35.5919 4.45244C36.27 4.45244 36.8275 4.56797 37.2645 4.79902C37.7065 5.02505 38.0581 5.29879 38.3193 5.62026C38.5805 5.93669 38.7789 6.23555 38.9145 6.51683H39.0652V4.60313H41.7549V16.3641C41.7549 17.3536 41.5189 18.1724 41.0467 18.8203C40.5746 19.4683 39.9291 19.953 39.1104 20.2744C38.2917 20.5959 37.3624 20.7566 36.3227 20.7566ZM36.3453 13.8703C36.9229 13.8703 37.4152 13.7297 37.822 13.4484C38.2289 13.1671 38.5378 12.7628 38.7488 12.2354C38.9597 11.708 39.0652 11.0751 39.0652 10.3367C39.0652 9.6084 38.9597 8.9705 38.7488 8.42301C38.5428 7.87552 38.2364 7.45108 37.8296 7.14971C37.4277 6.84332 36.933 6.69012 36.3453 6.69012C35.7376 6.69012 35.2302 6.84834 34.8234 7.16478C34.4165 7.48122 34.1101 7.9157 33.9042 8.46821C33.6983 9.0157 33.5953 9.63854 33.5953 10.3367C33.5953 11.0449 33.6983 11.6653 33.9042 12.1977C34.1152 12.7251 34.4241 13.137 34.8309 13.4333C35.2428 13.7246 35.7476 13.8703 36.3453 13.8703ZM44.5501 16.1758V4.60313H47.2776V16.1758H44.5501ZM45.9214 2.96065C45.4894 2.96065 45.1177 2.8175 44.8063 2.5312C44.4949 2.23987 44.3392 1.89079 44.3392 1.48394C44.3392 1.07206 44.4949 0.722973 44.8063 0.43667C45.1177 0.145345 45.4894 -0.000317816 45.9214 -0.000317816C46.3584 -0.000317816 46.7301 0.145345 47.0365 0.43667C47.3479 0.722973 47.5036 1.07206 47.5036 1.48394C47.5036 1.89079 47.3479 2.23987 47.0365 2.5312C46.7301 2.8175 46.3584 2.96065 45.9214 2.96065ZM55.1302 16.4018C53.9749 16.4018 52.9829 16.1482 52.1541 15.6408C51.3304 15.1335 50.695 14.4329 50.2479 13.5388C49.8059 12.6397 49.5849 11.605 49.5849 10.4347C49.5849 9.25931 49.811 8.22209 50.263 7.323C50.7151 6.41889 51.353 5.71569 52.1767 5.2134C53.0055 4.7061 53.9849 4.45244 55.1151 4.45244C56.0544 4.45244 56.8856 4.62573 57.6089 4.97231C58.3373 5.31386 58.9174 5.79857 59.3494 6.42642C59.7813 7.04926 60.0274 7.77757 60.0877 8.61136H57.4809C57.3754 8.05383 57.1242 7.58921 56.7274 7.21752C56.3356 6.84081 55.8108 6.65245 55.1528 6.65245C54.5952 6.65245 54.1055 6.80314 53.6836 7.10451C53.2617 7.40086 52.9327 7.8278 52.6966 8.38534C52.4655 8.94287 52.35 9.61091 52.35 10.3895C52.35 11.178 52.4655 11.8561 52.6966 12.4237C52.9276 12.9863 53.2516 13.4207 53.6685 13.7271C54.0904 14.0285 54.5852 14.1792 55.1528 14.1792C55.5546 14.1792 55.9137 14.1039 56.2302 13.9532C56.5516 13.7975 56.8204 13.5739 57.0363 13.2826C57.2523 12.9913 57.4005 12.6372 57.4809 12.2203H60.0877C60.0224 13.039 59.7813 13.7648 59.3644 14.3977C58.9475 15.0255 58.3799 15.5178 57.6617 15.8744C56.9434 16.226 56.0996 16.4018 55.1302 16.4018ZM62.4478 0.745576H65.8684L70.4492 11.9264H70.6301L75.2109 0.745576H78.6315V16.1758H75.9493V5.57505H75.8061L71.5417 16.1306H69.5376L65.2732 5.55245H65.13V16.1758H62.4478V0.745576ZM86.6027 16.4018C85.4726 16.4018 84.4931 16.1532 83.6644 15.6559C82.8356 15.1587 82.1927 14.463 81.7356 13.5689C81.2835 12.6749 81.0575 11.6301 81.0575 10.4347C81.0575 9.23922 81.2835 8.19196 81.7356 7.29286C82.1927 6.39377 82.8356 5.6956 83.6644 5.19834C84.4931 4.70107 85.4726 4.45244 86.6027 4.45244C87.7329 4.45244 88.7123 4.70107 89.5411 5.19834C90.3699 5.6956 91.0103 6.39377 91.4623 7.29286C91.9194 8.19196 92.148 9.23922 92.148 10.4347C92.148 11.6301 91.9194 12.6749 91.4623 13.5689C91.0103 14.463 90.3699 15.1587 89.5411 15.6559C88.7123 16.1532 87.7329 16.4018 86.6027 16.4018ZM86.6178 14.2169C87.2306 14.2169 87.7429 14.0486 88.1548 13.7121C88.5667 13.3705 88.8731 12.9134 89.074 12.3408C89.2799 11.7682 89.3829 11.1303 89.3829 10.4271C89.3829 9.7189 89.2799 9.07849 89.074 8.50588C88.8731 7.92826 88.5667 7.46867 88.1548 7.12711C87.7429 6.78556 87.2306 6.61478 86.6178 6.61478C85.9899 6.61478 85.4676 6.78556 85.0507 7.12711C84.6388 7.46867 84.3299 7.92826 84.124 8.50588C83.923 9.07849 83.8226 9.7189 83.8226 10.4271C83.8226 11.1303 83.923 11.7682 84.124 12.3408C84.3299 12.9134 84.6388 13.3705 85.0507 13.7121C85.4676 14.0486 85.9899 14.2169 86.6178 14.2169ZM97.1903 9.39493V16.1758H94.4629V4.60313H97.0697V6.56957H97.2053C97.4716 5.92163 97.896 5.40678 98.4786 5.02505C99.0663 4.64331 99.7921 4.45244 100.656 4.45244C101.455 4.45244 102.15 4.62322 102.743 4.96477C103.341 5.30633 103.803 5.80108 104.129 6.44903C104.461 7.09697 104.624 7.88305 104.619 8.80726V16.1758H101.892V9.22918C101.892 8.45566 101.691 7.8504 101.289 7.41341C100.892 6.97643 100.342 6.75793 99.6389 6.75793C99.1617 6.75793 98.7373 6.86341 98.3656 7.07437C97.999 7.28031 97.7101 7.57917 97.4992 7.97095C97.2932 8.36273 97.1903 8.83739 97.1903 9.39493ZM111.686 16.3792C110.777 16.3792 109.963 16.1456 109.245 15.6785C108.527 15.2114 107.959 14.5333 107.542 13.6443C107.125 12.7552 106.917 11.6753 106.917 10.4045C106.917 9.11867 107.128 8.03374 107.55 7.14971C107.977 6.26067 108.552 5.59012 109.275 5.13806C109.999 4.68098 110.805 4.45244 111.694 4.45244C112.372 4.45244 112.929 4.56797 113.366 4.79902C113.803 5.02505 114.15 5.29879 114.406 5.62026C114.662 5.93669 114.861 6.23555 115.001 6.51683H115.114V0.745576H117.849V16.1758H115.167V14.3525H115.001C114.861 14.6338 114.657 14.9326 114.391 15.2491C114.125 15.5605 113.773 15.8267 113.336 16.0477C112.899 16.2687 112.349 16.3792 111.686 16.3792ZM112.447 14.1415C113.025 14.1415 113.517 13.9858 113.924 13.6744C114.331 13.358 114.64 12.9185 114.851 12.3559C115.062 11.7933 115.167 11.1379 115.167 10.3895C115.167 9.64105 115.062 8.99059 114.851 8.43808C114.645 7.88556 114.338 7.45611 113.931 7.14971C113.53 6.84332 113.035 6.69012 112.447 6.69012C111.839 6.69012 111.332 6.84834 110.925 7.16478C110.518 7.48122 110.212 7.91821 110.006 8.47575C109.8 9.03328 109.697 9.67119 109.697 10.3895C109.697 11.1127 109.8 11.7582 110.006 12.3258C110.217 12.8883 110.526 13.3328 110.933 13.6593C111.345 13.9808 111.849 14.1415 112.447 14.1415Z" fill="white"/>
</svg>
